# xmcd
#
# Track frame offsets:
#	150
#	15012
#	34778
#	52482
#
# Disc length: 943 seconds
#
# Revision: 1
# Processed by: cddbd v1.5.2PL0 Copyright (c) Steve Scherf et al.
# Submitted via: audiograbber 1.83.01
#
DISCID=2903ad04
DTITLE=Shania Twain - You're Still The One (Single)
DYEAR=1995
DGENRE=Pop
TTITLE0=You're Still The One (Single Version)
TTITLE1=If You'r Not In It For Love, I'm Otta Here! (Mutt Lange Mix)
TTITLE2=You Win My Love (Mutt Lange Mix)
TTITLE3=You're Still The One (Soul Solution Dance-Radio Edit)
EXTD=
EXTT0=
EXTT1=
EXTT2=
EXTT3=
PLAYORDER=
